<?xml version="1.0" encoding="iso-8859-1"?>
<!-- Generator: Adobe Illustrator 16.0.0, SVG Export Plug-In . SVG Version: 6.00 Build 0)  -->
<!DOCTYPE svg PUBLIC "-//W3C//DTD SVG 1.1//EN" "http://www.w3.org/Graphics/SVG/1.1/DTD/svg11.dtd">
<svg version="1.1" xmlns="http://www.w3.org/2000/svg" xmlns:xlink="http://www.w3.org/1999/xlink" x="0px" y="0px"
	 width="201.239px" height="200.17px" viewBox="0 0 201.239 200.17" style="enable-background:new 0 0 201.239 200.17;"
	 xml:space="preserve">
<g id="logo_symbol_1" style="display:none;">
	<g style="display:inline;">
		<path d="M118.49,192.655c-9.65,9.653-25.303,9.653-34.956,0l-57.704-57.701c-2.111-2.115-2.111-5.572,0-7.683l8.123-8.125
			c2.113-2.111,5.571-2.111,7.682,0l51.75,51.754c4.205,4.2,11.017,4.2,15.217,0l32.2-32.2c4.201-4.202,4.201-11.012,0-15.212
			L89.049,71.735c-2.113-2.112-2.113-5.572,0-7.684l8.122-8.121c2.111-2.111,5.569-2.111,7.684,0l57.702,57.701
			c9.653,9.656,9.653,25.304,0,34.957L118.49,192.655z"/>
		<path d="M83.535,7.338c9.652-9.651,25.305-9.651,34.956,0l57.704,57.702c2.112,2.111,2.112,5.569,0,7.681l-8.121,8.124
			c-2.114,2.112-5.571,2.112-7.683,0l-51.754-51.75c-4.203-4.206-11.013-4.206-15.215,0l-32.2,32.196
			c-4.2,4.203-4.2,11.013,0,15.216l51.753,51.753c2.115,2.111,2.115,5.568,0,7.681l-8.121,8.122c-2.111,2.113-5.572,2.113-7.684,0
			L39.469,86.359c-9.652-9.653-9.652-25.304,0-34.956L83.535,7.338z"/>
	</g>
</g>
<g id="angle_down" style="display:none;">
	<polygon style="display:inline;fill:#303030;" points="164.345,49.996 100.517,113.826 36.688,49.996 0.529,49.996 
		100.517,149.984 200.508,49.996 	"/>
</g>
<g id="angle_left" style="display:none;">
	<polygon style="display:inline;fill:#303030;" points="150.512,163.816 86.682,99.988 150.512,36.158 150.512,0 50.524,99.988 
		150.512,199.979 	"/>
</g>
<g id="angle_right" style="display:none;">
	<polygon style="display:inline;fill:#303030;" points="50.525,36.163 114.354,99.991 50.525,163.82 50.525,199.978 150.513,99.991 
		50.525,0 	"/>
</g>
<g id="facebook" style="display:none;">
	<rect x="0.529" y="0.015" style="display:inline;" width="200" height="200"/>
	<path style="display:inline;fill:#FFFFFF;" d="M164.41,127.126l3.662-28.407h-28.129V80.58c0-8.224,2.291-13.829,14.088-13.829
		l15.027-0.009V41.334c-2.594-0.346-11.518-1.12-21.916-1.12c-21.691,0-36.529,13.242-36.529,37.557v20.948H86.081v28.407h24.532
		v72.889h29.33v-72.889H164.41z"/>
</g>
<g id="twitter">
	<rect x="0.529" y="0.015" style="fill:#303030;" width="200" height="200"/>
	<rect x="42.429" y="80.121" style="fill:#FFFFFF;" width="25.73" height="76.883"/>
	<path style="fill:#FFFFFF;" d="M55.3,69.614h-0.178c-8.628,0-14.216-5.902-14.216-13.283c0-7.538,5.753-13.277,14.551-13.277
		c8.805,0,14.218,5.739,14.383,13.277C69.84,63.721,64.262,69.614,55.3,69.614L55.3,69.614z"/>
	<path style="fill:#FFFFFF;" d="M160.906,157.003h-25.721v-41.137c0-10.34-3.732-17.391-13.027-17.391
		c-7.123,0-11.344,4.762-13.203,9.354c-0.682,1.643-0.848,3.934-0.848,6.225v42.949H82.387c0,0,0.341-69.676,0-76.883h25.721v10.902
		c3.416-5.24,9.516-12.714,23.18-12.714c16.924,0,29.619,10.985,29.619,34.608V157.003z"/>
</g>
<g id="linkedin" style="display:none;">
	<rect x="0.529" y="0.015" style="display:inline;fill:#303030;" width="200" height="200"/>
	<path style="display:inline;fill:#FFFFFF;" d="M161.186,63.956c-4.414,1.959-9.162,3.283-14.139,3.877
		c5.08-3.047,8.99-7.869,10.824-13.621c-4.752,2.822-10.018,4.873-15.629,5.978c-4.494-4.787-10.895-7.775-17.975-7.775
		c-13.596,0-24.621,11.024-24.621,24.619c0,1.932,0.217,3.807,0.637,5.608c-20.463-1.022-38.6-10.824-50.744-25.725
		c-2.115,3.641-3.331,7.869-3.331,12.379c0,8.54,4.346,16.081,10.947,20.492c-4.032-0.123-7.829-1.239-11.148-3.082v0.312
		c0,11.927,8.486,21.881,19.746,24.143c-2.064,0.561-4.246,0.867-6.485,0.867c-1.583,0-3.131-0.158-4.635-0.447
		c3.134,9.781,12.225,16.898,22.997,17.102c-8.421,6.6-19.034,10.539-30.575,10.539c-1.985,0-3.942-0.119-5.869-0.344
		c10.893,6.975,23.835,11.057,37.744,11.057c45.281,0,70.041-37.51,70.041-70.048c0-1.063-0.023-2.125-0.064-3.188
		C153.707,73.23,157.879,68.895,161.186,63.956z"/>
</g>
<g id="send" style="display:none;">
	<polyline style="display:inline;" points="114.767,164.165 83.623,198.941 82.791,143.631 150.39,53.648 62.087,130.337 
		7.007,94.966 193.894,1.933 148.472,185.807 82.791,143.631 	"/>
</g>
<g id="camera" style="display:none;">
	<path style="display:inline;stroke:#FFFFFF;stroke-width:12;stroke-miterlimit:10;" d="M138.505,46.556"/>
	<g style="display:inline;">
		<path d="M143.505,46.556c-2.75,0-5.063,0-5.139,0s-0.735-2.169-1.465-4.821l-3.214-11.686c-0.729-2.651-3.576-4.821-6.326-4.821
			H71.987c-2.75,0-5.429,2.208-5.954,4.908l-2.237,11.511c-0.525,2.7-3.204,4.908-5.954,4.908H5.463c-2.75,0-5,2.25-5,5v119.452
			c0,2.75,2.25,5,5,5h190.066c2.75,0,5-2.25,5-5V51.556c0-2.75-2.25-5-5-5H143.505z M100.496,152.83
			c-22.946,0-41.547-18.604-41.547-41.548c0-22.946,18.601-41.547,41.547-41.547s41.548,18.601,41.548,41.547
			C142.044,134.226,123.441,152.83,100.496,152.83z"/>
	</g>
</g>
<g id="arrow_right" style="display:none;">
	<polygon style="display:inline;" points="132.33,31.104 123.889,39.545 178.388,94.044 0.196,94.044 0.196,105.982 
		178.388,105.982 123.889,160.481 132.33,168.922 201.239,100.013 	"/>
</g>
<g id="arrow_down" style="display:none;">
	<polygon style="display:inline;" points="168.713,131.603 160.357,123.248 106.418,177.188 106.418,0.825 94.603,0.825 
		94.603,177.188 40.663,123.248 32.309,131.603 100.51,199.805 	"/>
</g>
<g id="exterior_signs" style="display:none;">
	<path style="display:inline;" d="M100.529,0.015c-55.229,0-100,44.771-100,100s44.771,100,100,100s100-44.771,100-100
		S155.758,0.015,100.529,0.015z M156.548,67.439l-15.596,20.557c-0.767-3.183-1.989-6.313-3.709-9.292
		c-1.764-3.054-3.922-5.736-6.368-8.027L156.548,67.439z M100.567,35.239l10.006,23.783c-3.141-0.928-6.462-1.434-9.903-1.434
		c-3.526,0-6.928,0.527-10.136,1.5L100.567,35.239z M70.29,70.845c-2.373,2.256-4.472,4.878-6.192,7.858
		c-1.763,3.054-3.007,6.264-3.769,9.529L44.69,67.619L70.29,70.845z M44.794,132.198l15.594-20.557
		c0.766,3.183,1.989,6.313,3.709,9.293c1.763,3.055,3.921,5.735,6.368,8.027L44.794,132.198z M100.773,164.4l-10.005-23.784
		c3.14,0.927,6.461,1.434,9.902,1.434c3.527,0,6.929-0.528,10.137-1.501L100.773,164.4z M100.67,132.147
		c-17.854,0-32.329-14.476-32.329-32.328c0-17.854,14.475-32.328,32.329-32.328c17.853,0,32.329,14.474,32.329,32.328
		C132.999,117.671,118.522,132.147,100.67,132.147z M131.051,128.792c2.372-2.255,4.473-4.878,6.192-7.857
		c1.764-3.056,3.007-6.266,3.768-9.53l15.639,20.615L131.051,128.792z"/>
</g>
<g id="interior_signs" style="display:none;">
	<path style="display:inline;" d="M100.346,0.516c-54.946,0-99.489,44.543-99.489,99.489c0,54.946,44.543,99.489,99.489,99.489
		s99.489-44.543,99.489-99.489C199.835,45.059,155.292,0.516,100.346,0.516z M133.298,95.216v53.512h-23.235v-29.994H90.629v29.994
		H67.394V95.216H56.41l43.936-43.936l43.936,43.936H133.298z"/>
</g>
<g id="donor_recognition" style="display:none;">
	<path style="display:inline;" d="M100.529,0.015c-55.229,0-100,44.771-100,100s44.771,100,100,100s100-44.771,100-100
		S155.758,0.015,100.529,0.015z M151.004,94.914c0,0-3.951,6.977-6.539,10.139l-43.936,49.445l-43.936-49.445
		c-2.588-3.162-6.54-10.139-6.54-10.139c-1.416-3.261-2.201-6.858-2.201-10.641c0-14.768,11.972-26.739,26.739-26.739
		c12.518,0,23.025,8.602,25.938,20.216c2.911-11.615,13.42-20.216,25.937-20.216c14.769,0,26.74,11.972,26.74,26.739
		C153.206,88.055,152.421,91.653,151.004,94.914z"/>
</g>
<g id="digital_experience" style="display:none;">
	<g style="display:inline;">
		<rect x="66.024" y="71.785" width="67.991" height="45.266"/>
		<path d="M100.391,0.016c-55.229,0-100,44.771-100,100c0,55.228,44.771,100,100,100s100-44.771,100-100
			C200.391,44.787,155.619,0.016,100.391,0.016z M146.342,122.011c0,3.048-2.494,5.543-5.543,5.543h-29.587v0.021v7.112h11.801
			v5.994h-22.622H77.768v-5.994h11.801v-7.112v-0.021H59.981c-3.049,0-5.543-2.495-5.543-5.543V65.867
			c0-3.048,2.494-5.542,5.543-5.542h80.817c3.049,0,5.543,2.494,5.543,5.542V122.011z"/>
	</g>
</g>
<g id="speciality_fabrication" style="display:none;">
	<path style="display:inline;" d="M100.437,0.32c-55.126,0-99.814,44.688-99.814,99.814s44.688,99.814,99.814,99.814
		s99.814-44.688,99.814-99.814S155.563,0.32,100.437,0.32z M135.124,153.514l-34.688-18.236l-34.688,18.236l6.625-38.625
		L44.31,87.534l38.783-5.636l17.344-35.143l17.344,35.143l38.782,5.636L128.5,114.889L135.124,153.514z"/>
</g>
<g id="x" style="display:none;">
	<polygon style="display:inline;" points="200.15,25.993 174.178,0.02 100.075,74.123 25.973,0.02 0,25.993 74.103,100.095 
		0,174.198 25.973,200.17 100.075,126.068 174.178,200.17 200.15,174.198 126.048,100.095 	"/>
</g>
<g id="check" style="display:none;">
	<polygon style="display:inline;" points="179.802,29.528 79.018,130.313 21.598,72.893 1.472,93.019 79.018,170.565 
		199.928,49.653 	"/>
</g>
<g id="_x2A_" style="display:none;">
	<polygon style="display:inline;" points="194.052,63.04 179.153,37.234 114.974,74.289 114.974,0.181 85.176,0.181 85.176,74.29 
		20.996,37.236 6.098,63.042 70.277,100.095 6.098,137.149 20.996,162.954 85.176,125.9 85.176,200.008 114.974,200.008 
		114.974,125.9 179.153,162.954 194.052,137.149 129.871,100.095 	"/>
</g>
<g id="calendar" style="display:none;">
	<path style="display:inline;" d="M0.529,0.015v200h200v-200H0.529z M180.529,20.015v44.488h-160V20.015H180.529z M80.929,121.57
		V84.503h40.8v37.066H80.929z M121.729,141.57v38.445h-40.8V141.57H121.729z M60.929,121.57h-40.4V84.503h40.4V121.57z
		 M141.729,84.503h38.8v37.066h-38.8V84.503z M20.529,141.57h40.4v38.445h-40.4V141.57z M141.729,180.015V141.57h38.8v38.445
		H141.729z"/>
</g>
<g id="resume" style="display:none;">
	<g style="display:inline;">
		<path style="fill:#FFFFFF;stroke:#000000;stroke-width:19.9999;stroke-miterlimit:10;" d="M108.379,0.016"/>
	</g>
	<path style="display:inline;" d="M108.379,0.016H17.263v200h165.87V78.116L108.379,0.016z M110.882,31.555L156.1,78.797h-45.218
		V31.555z M37.263,180.015v-160h53.619v78.781h72.25v81.218H37.263z"/>
</g>
</svg>
