<?xml version="1.0" encoding="utf-8"?>
<!-- Generator: Adobe Illustrator 18.0.0, SVG Export Plug-In . SVG Version: 6.00 Build 0)  -->
<!DOCTYPE svg PUBLIC "-//W3C//DTD SVG 1.1//EN" "http://www.w3.org/Graphics/SVG/1.1/DTD/svg11.dtd">
<svg version="1.1" id="Layer_1" xmlns="http://www.w3.org/2000/svg" xmlns:xlink="http://www.w3.org/1999/xlink" x="0px" y="0px"
	 viewBox="0 0 201.2 200.2" enable-background="new 0 0 201.2 200.2" xml:space="preserve">
<g id="logo_symbol_1" display="none">
	<g display="inline">
		<path d="M118.5,192.7c-9.7,9.7-25.3,9.7-35,0L25.8,135c-2.1-2.1-2.1-5.6,0-7.7l8.1-8.1c2.1-2.1,5.6-2.1,7.7,0l51.7,51.8
			c4.2,4.2,11,4.2,15.2,0l32.2-32.2c4.2-4.2,4.2-11,0-15.2L89,71.7c-2.1-2.1-2.1-5.6,0-7.7l8.1-8.1c2.1-2.1,5.6-2.1,7.7,0l57.7,57.7
			c9.7,9.7,9.7,25.3,0,35L118.5,192.7z"/>
		<path d="M83.5,7.3c9.7-9.7,25.3-9.7,35,0L176.2,65c2.1,2.1,2.1,5.6,0,7.7l-8.1,8.1c-2.1,2.1-5.6,2.1-7.7,0l-51.8-51.8
			c-4.2-4.2-11-4.2-15.2,0L61.2,61.3c-4.2,4.2-4.2,11,0,15.2l51.8,51.8c2.1,2.1,2.1,5.6,0,7.7l-8.1,8.1c-2.1,2.1-5.6,2.1-7.7,0
			L39.5,86.4c-9.7-9.7-9.7-25.3,0-35L83.5,7.3z"/>
	</g>
</g>
<g id="angle_down" display="none">
	<polygon display="inline" fill="#303030" points="164.3,50 100.5,113.8 36.7,50 0.5,50 100.5,150 200.5,50 	"/>
</g>
<g id="angle_left" display="none">
	<polygon display="inline" fill="#303030" points="150.5,163.8 86.7,100 150.5,36.2 150.5,0 50.5,100 150.5,200 	"/>
</g>
<g id="angle_right" display="none">
	<polygon display="inline" fill="#303030" points="50.5,36.2 114.4,100 50.5,163.8 50.5,200 150.5,100 50.5,0 	"/>
</g>
<g id="facebook" display="none">
	<rect x="0.5" y="0" display="inline" width="200" height="200"/>
	<path display="inline" fill="#FFFFFF" d="M164.4,127.1l3.7-28.4h-28.1V80.6c0-8.2,2.3-13.8,14.1-13.8l15,0V41.3
		c-2.6-0.3-11.5-1.1-21.9-1.1c-21.7,0-36.5,13.2-36.5,37.6v20.9H86.1v28.4h24.5V200h29.3v-72.9L164.4,127.1L164.4,127.1z"/>
</g>
<g id="twitter">
	<rect x="0.5" y="0" fill="#0086CE" width="200" height="200"/>
	<rect x="42.4" y="80.1" fill="#FFFFFF" width="25.7" height="76.9"/>
	<path fill="#FFFFFF" d="M55.3,69.6h-0.2c-8.6,0-14.2-5.9-14.2-13.3c0-7.5,5.8-13.3,14.6-13.3c8.8,0,14.2,5.7,14.4,13.3
		C69.8,63.7,64.3,69.6,55.3,69.6L55.3,69.6z"/>
	<path fill="#FFFFFF" d="M160.9,157h-25.7v-41.1c0-10.3-3.7-17.4-13-17.4c-7.1,0-11.3,4.8-13.2,9.4c-0.7,1.6-0.8,3.9-0.8,6.2V157
		H82.4c0,0,0.3-69.7,0-76.9h25.7V91c3.4-5.2,9.5-12.7,23.2-12.7c16.9,0,29.6,11,29.6,34.6L160.9,157L160.9,157z"/>
</g>
<g id="linkedin" display="none">
	<rect x="0.5" y="0" display="inline" fill="#303030" width="200" height="200"/>
	<path display="inline" fill="#FFFFFF" d="M161.2,64c-4.4,2-9.2,3.3-14.1,3.9c5.1-3,9-7.9,10.8-13.6c-4.8,2.8-10,4.9-15.6,6
		c-4.5-4.8-10.9-7.8-18-7.8c-13.6,0-24.6,11-24.6,24.6c0,1.9,0.2,3.8,0.6,5.6c-20.5-1-38.6-10.8-50.7-25.7
		c-2.1,3.6-3.3,7.9-3.3,12.4c0,8.5,4.3,16.1,10.9,20.5c-4-0.1-7.8-1.2-11.1-3.1V87c0,11.9,8.5,21.9,19.7,24.1
		c-2.1,0.6-4.2,0.9-6.5,0.9c-1.6,0-3.1-0.2-4.6-0.4c3.1,9.8,12.2,16.9,23,17.1c-8.4,6.6-19,10.5-30.6,10.5c-2,0-3.9-0.1-5.9-0.3
		c10.9,7,23.8,11.1,37.7,11.1c45.3,0,70-37.5,70-70c0-1.1,0-2.1-0.1-3.2C153.7,73.2,157.9,68.9,161.2,64z"/>
</g>
<g id="send" display="none">
	<polyline display="inline" points="114.8,164.2 83.6,198.9 82.8,143.6 150.4,53.6 62.1,130.3 7,95 193.9,1.9 148.5,185.8 
		82.8,143.6 	"/>
</g>
<g id="camera" display="none">
	<path display="inline" stroke="#FFFFFF" stroke-width="12" stroke-miterlimit="10" d="M138.5,46.6"/>
	<g display="inline">
		<path d="M143.5,46.6c-2.8,0-5.1,0-5.1,0s-0.7-2.2-1.5-4.8L133.7,30c-0.7-2.7-3.6-4.8-6.3-4.8H72c-2.8,0-5.4,2.2-6,4.9l-2.2,11.5
			c-0.5,2.7-3.2,4.9-6,4.9H5.5c-2.8,0-5,2.2-5,5V171c0,2.8,2.2,5,5,5h190.1c2.8,0,5-2.2,5-5V51.6c0-2.8-2.2-5-5-5H143.5z
			 M100.5,152.8c-22.9,0-41.5-18.6-41.5-41.5c0-22.9,18.6-41.5,41.5-41.5S142,88.3,142,111.3C142,134.2,123.4,152.8,100.5,152.8z"/>
	</g>
</g>
<g id="arrow_right" display="none">
	<polygon display="inline" points="132.3,31.1 123.9,39.5 178.4,94 0.2,94 0.2,106 178.4,106 123.9,160.5 132.3,168.9 201.2,100 	
		"/>
</g>
<g id="arrow_down" display="none">
	<polygon display="inline" points="168.7,131.6 160.4,123.2 106.4,177.2 106.4,0.8 94.6,0.8 94.6,177.2 40.7,123.2 32.3,131.6 
		100.5,199.8 	"/>
</g>
<g id="exterior_signs" display="none">
	<path display="inline" d="M100.5,0C45.3,0,0.5,44.8,0.5,100s44.8,100,100,100s100-44.8,100-100S155.8,0,100.5,0z M156.5,67.4
		L141,88c-0.8-3.2-2-6.3-3.7-9.3c-1.8-3.1-3.9-5.7-6.4-8L156.5,67.4z M100.6,35.2l10,23.8c-3.1-0.9-6.5-1.4-9.9-1.4
		c-3.5,0-6.9,0.5-10.1,1.5L100.6,35.2z M70.3,70.8c-2.4,2.3-4.5,4.9-6.2,7.9c-1.8,3.1-3,6.3-3.8,9.5L44.7,67.6L70.3,70.8z
		 M44.8,132.2l15.6-20.6c0.8,3.2,2,6.3,3.7,9.3c1.8,3.1,3.9,5.7,6.4,8L44.8,132.2z M100.8,164.4l-10-23.8c3.1,0.9,6.5,1.4,9.9,1.4
		c3.5,0,6.9-0.5,10.1-1.5L100.8,164.4z M100.7,132.1c-17.9,0-32.3-14.5-32.3-32.3c0-17.9,14.5-32.3,32.3-32.3
		c17.9,0,32.3,14.5,32.3,32.3C133,117.7,118.5,132.1,100.7,132.1z M131.1,128.8c2.4-2.3,4.5-4.9,6.2-7.9c1.8-3.1,3-6.3,3.8-9.5
		l15.6,20.6L131.1,128.8z"/>
</g>
<g id="interior_signs" display="none">
	<path display="inline" d="M100.3,0.5C45.4,0.5,0.9,45.1,0.9,100s44.5,99.5,99.5,99.5s99.5-44.5,99.5-99.5
		C199.8,45.1,155.3,0.5,100.3,0.5z M133.3,95.2v53.5h-23.2v-30H90.6v30H67.4V95.2h-11l43.9-43.9l43.9,43.9H133.3z"/>
</g>
<g id="donor_recognition" display="none">
	<path display="inline" d="M100.5,0C45.3,0,0.5,44.8,0.5,100s44.8,100,100,100s100-44.8,100-100S155.8,0,100.5,0z M151,94.9
		c0,0-4,7-6.5,10.1l-43.9,49.4l-43.9-49.4c-2.6-3.2-6.5-10.1-6.5-10.1c-1.4-3.3-2.2-6.9-2.2-10.6c0-14.8,12-26.7,26.7-26.7
		c12.5,0,23,8.6,25.9,20.2c2.9-11.6,13.4-20.2,25.9-20.2c14.8,0,26.7,12,26.7,26.7C153.2,88.1,152.4,91.7,151,94.9z"/>
</g>
<g id="digital_experience" display="none">
	<g display="inline">
		<rect x="66" y="71.8" width="68" height="45.3"/>
		<path d="M100.4,0C45.2,0,0.4,44.8,0.4,100c0,55.2,44.8,100,100,100s100-44.8,100-100C200.4,44.8,155.6,0,100.4,0z M146.3,122
			c0,3-2.5,5.5-5.5,5.5h-29.6v0v7.1H123v6h-22.6H77.8v-6h11.8v-7.1v0H60c-3,0-5.5-2.5-5.5-5.5V65.9c0-3,2.5-5.5,5.5-5.5h80.8
			c3,0,5.5,2.5,5.5,5.5L146.3,122L146.3,122z"/>
	</g>
</g>
<g id="speciality_fabrication" display="none">
	<path display="inline" d="M100.4,0.3C45.3,0.3,0.6,45,0.6,100.1s44.7,99.8,99.8,99.8s99.8-44.7,99.8-99.8S155.6,0.3,100.4,0.3z
		 M135.1,153.5l-34.7-18.2l-34.7,18.2l6.6-38.6L44.3,87.5l38.8-5.6l17.3-35.1l17.3,35.1l38.8,5.6l-28.1,27.4L135.1,153.5z"/>
</g>
<g id="x" display="none">
	<polygon display="inline" points="200.1,26 174.2,0 100.1,74.1 26,0 0,26 74.1,100.1 0,174.2 26,200.2 100.1,126.1 174.2,200.2 
		200.1,174.2 126,100.1 	"/>
</g>
<g id="check" display="none">
	<polygon display="inline" points="179.8,29.5 79,130.3 21.6,72.9 1.5,93 79,170.6 199.9,49.7 	"/>
</g>
<g id="_x2A_" display="none">
	<polygon display="inline" points="194.1,63 179.2,37.2 115,74.3 115,0.2 85.2,0.2 85.2,74.3 21,37.2 6.1,63 70.3,100.1 6.1,137.1 
		21,163 85.2,125.9 85.2,200 115,200 115,125.9 179.2,163 194.1,137.1 129.9,100.1 	"/>
</g>
<g id="calendar" display="none">
	<path display="inline" d="M0.5,0v200h200V0C200.5,0,0.5,0,0.5,0z M180.5,20v44.5h-160V20H180.5z M80.9,121.6V84.5h40.8v37.1
		L80.9,121.6L80.9,121.6z M121.7,141.6V180H80.9v-38.4H121.7z M60.9,121.6H20.5V84.5h40.4V121.6z M141.7,84.5h38.8v37.1h-38.8V84.5z
		 M20.5,141.6h40.4V180H20.5V141.6z M141.7,180v-38.4h38.8V180L141.7,180L141.7,180z"/>
</g>
<g id="resume" display="none">
	<g display="inline">
		<path fill="#FFFFFF" stroke="#000000" stroke-width="19.9999" stroke-miterlimit="10" d="M108.4,0"/>
	</g>
	<path display="inline" d="M108.4,0H17.3v200h165.9V78.1L108.4,0z M110.9,31.6l45.2,47.2h-45.2V31.6z M37.3,180V20h53.6v78.8h72.2
		V180L37.3,180L37.3,180z"/>
</g>
</svg>
